<svg xmlns="http://www.w3.org/2000/svg" width="512" height="512" viewBox="0 0 512 512"><path fill="#FFF" d="M461.4 244.318c0 50.852-41.37 92.22-92.222 92.22H332.33v-40h36.848c28.795 0 52.222-23.425 52.222-52.22 0-35.412-23.816-53.746-49.18-53.844-1.304-58.902-40.638-84.982-78.664-84.982-50.31 0-70.975 38.08-76.132 52.662-20.51-29.582-76.177-7.248-64.64 32.348C118.25 184.24 90.6 210.24 90.6 244.318c0 28.795 23.427 52.22 53.222 52.22h50.512v40h-50.512c-51.852 0-93.222-41.368-93.222-92.22 0-41.408 27.56-77.127 66.153-88.463 10.854-36.998 49.784-58.686 86.933-48.78 22.24-26.298 54.773-41.583 89.87-41.583 57.116 0 105.366 40.816 115.782 95.777 31.603 15.203 52.062 47.134 52.062 83.048zM336.918 372.8h-33.84v-76.26h-79.486v76.26h-33.84l73.582 73.708 73.584-73.708z"/></svg>